<svg width="18" height="18" fill="none" xmlns="http://www.w3.org/2000/svg"><path fill-rule="evenodd" clip-rule="evenodd" d="M9 3c2 0 3 1 3 2l3-3-6-2C5 0 2 2 1 5l3 2c1-2 3-4 5-4Z" fill="#EA4335"/><path fill-rule="evenodd" clip-rule="evenodd" d="m18 9-1-2H9v4h5l-2 3 3 2c2-2 3-4 3-7Z" fill="#4285F4"/><path fill-rule="evenodd" clip-rule="evenodd" d="M4 11a6 6 0 0 1 0-4L1 5a9 9 0 0 0 0 8l3-2Z" fill="#FBBC05"/><path fill-rule="evenodd" clip-rule="evenodd" d="m9 18 6-2-3-2-3 1c-2 0-4-2-5-4l-3 2c1 3 4 5 8 5Z" fill="#34A853"/></svg>
