<svg width="183" height="40" fill="none" xmlns="http://www.w3.org/2000/svg"><path fill-rule="evenodd" clip-rule="evenodd" d="M31 1a1 1 0 0 0-2-1l-5 1v4a1 1 0 0 0 1 1l5-1 1-1V1Zm66 0V0h-1l-4 1h-1v31l1 1h5l1-1V11l14 21v1h4l1-1V1h-1l-4-1h-1l-1 1v18L97 1ZM67 7h1v4c3-2 5-4 8-4 6 0 10 4 10 10v15l-1 1h-5l-1-1V18c0-3-1-4-5-4l-4 2h-1v16l-1 1h-5l-1-1V9l1-1 3-1h1Zm79 13c0-8-4-13-13-13-8 0-12 5-12 13 0 9 4 13 12 13 9 0 13-4 13-13ZM45 8l7 1h1l3-1 1 1h1v4h-2v2c0 5-3 8-11 8h-3l-1 1 1 1h8c6 1 9 3 9 7 0 5-4 8-13 8-8 0-12-3-12-7l2-4-2-3c0-2 1-4 4-5-2-1-3-3-3-6 0-4 3-7 10-7Zm-4 23-1 1c0 2 2 3 5 3h1c5 0 7-1 7-2s-1-2-4-2h-8ZM11 7l6 1 1 1 1 1-2 3v1h-1l-6-1c-2 0-3 1-3 2l4 2c4 1 9 2 9 8 0 5-3 8-11 8l-8-1-1-1v-1l2-3h1l6 1c3 0 4-1 4-3l-4-2c-4-1-9-2-9-8 0-4 3-8 11-8Zm20 3a1 1 0 0 0-2-1l-5 1v22l1 1h5l1-1V10Zm117-3 5 2 1 1 3 15v2-2l3-14 2-1h6l1 1 3 14 1 2v-2l3-15 1-1 4-1a1 1 0 0 1 2 2l-6 22-1 1h-7l-1-1-3-13v-2l-1 2-3 13-1 1h-7l-1-1-5-23a1 1 0 0 1 1-2Zm-20 13c0-5 1-7 5-7s6 2 6 7c0 6-2 8-6 8s-5-2-5-8Zm-82-7c-3 0-4 1-4 3s1 2 3 2c4 0 4 0 4-2 0-3-1-3-3-3Z" fill="#0777CF"/></svg>
